<svg width="0" height="0" fill="none" style="visibility: hidden; position: absolute;" aria-hidden="true">
    <symbol id="Discount"  viewBox="0 0 24 24" xmlns="http://www.w3.org/2000/svg">
        <g id="Iconly/Light/Discount__Discount" stroke="none" stroke-width="1" fill="none" fill-rule="evenodd" stroke-linecap="round" stroke-linejoin="round">
            <g id="Discount__Discount" transform="translate(2.000000, 2.000000)" stroke="#000000">
                <path d="M2.7949,5.056 C2.7949,3.807 3.8069,2.795 5.0559,2.794 L6.0849,2.794 C6.6819,2.794 7.2539,2.557 7.6779,2.137 L8.3969,1.417 C9.2779,0.531 10.7099,0.527 11.5959,1.408 L11.5969,1.409 L11.6059,1.417 L12.3259,2.137 C12.7499,2.558 13.3219,2.794 13.9189,2.794 L14.9469,2.794 C16.1959,2.794 17.2089,3.806 17.2089,5.056 L17.2089,6.083 C17.2089,6.68 17.4449,7.253 17.8659,7.677 L18.5859,8.397 C19.4719,9.278 19.4769,10.71 18.5959,11.596 C18.5959,11.596 18.5949,11.597 18.5949,11.597 L18.5859,11.606 L17.8659,12.326 C17.4449,12.749 17.2089,13.321 17.2089,13.918 L17.2089,14.947 C17.2089,16.196 16.1969,17.208 14.9479,17.208 L14.9469,17.208 L13.9169,17.208 C13.3199,17.208 12.7469,17.445 12.3239,17.866 L11.6039,18.585 C10.7239,19.471 9.2929,19.476 8.4069,18.597 C8.4059,18.596 8.4049,18.595 8.4039,18.594 L8.3949,18.585 L7.6759,17.866 C7.2529,17.445 6.6799,17.209 6.0829,17.208 L5.0559,17.208 C3.8069,17.208 2.7949,16.196 2.7949,14.947 L2.7949,13.916 C2.7949,13.319 2.5579,12.747 2.1369,12.324 L1.4179,11.604 C0.5319,10.724 0.5269,9.293 1.4069,8.407 C1.4069,8.406 1.4079,8.405 1.4089,8.404 L1.4179,8.395 L2.1369,7.675 C2.5579,7.251 2.7949,6.679 2.7949,6.081 L2.7949,5.056" id="Stroke-1__Discount" stroke-width="1.5"></path>
                <line x1="7.4316" y1="12.5717" x2="12.5716" y2="7.4317" id="Stroke-3__Discount" stroke-width="1.5"></line>
                <line x1="12.4955" y1="12.5" x2="12.5045" y2="12.5" id="Stroke-11__Discount" stroke-width="2"></line>
                <line x1="7.4955" y1="7.5" x2="7.5045" y2="7.5" id="Stroke-11__Discount" stroke-width="2"></line>
            </g>
        </g>
    </symbol>
    <symbol id="Password"  viewBox="0 0 24 24" xmlns="http://www.w3.org/2000/svg">
        <g id="Iconly/Light/Password__Password" stroke="none" stroke-width="1" fill="none" fill-rule="evenodd" stroke-linecap="round" stroke-linejoin="round">
            <g id="Password__Password" transform="translate(2.000000, 2.000000)" stroke="#000000" stroke-width="1.5">
                <path d="M14.3341,0.7501 L5.6651,0.7501 C2.6441,0.7501 0.7501,2.8891 0.7501,5.9161 L0.7501,14.0841 C0.7501,17.1111 2.6351,19.2501 5.6651,19.2501 L14.3331,19.2501 C17.3641,19.2501 19.2501,17.1111 19.2501,14.0841 L19.2501,5.9161 C19.2501,2.8891 17.3641,0.7501 14.3341,0.7501 Z" id="Stroke-1__Password"></path>
                <path d="M8.6891,10.0001 C8.6891,11.0231 7.8601,11.8521 6.8371,11.8521 C5.8141,11.8521 4.9851,11.0231 4.9851,10.0001 C4.9851,8.9771 5.8141,8.1481 6.8371,8.1481 L6.8401,8.1481 C7.8611,8.1491 8.6891,8.9781 8.6891,10.0001 Z" id="Stroke-3__Password"></path>
                <polyline id="Stroke-5__Password" points="8.692 10.0001 15.01 10.0001 15.01 11.8521"></polyline>
                <line x1="12.1818" y1="11.8522" x2="12.1818" y2="10.0002" id="Stroke-7__Password"></line>
            </g>
        </g>
    </symbol>
    <symbol id="Ticket-Star"  viewBox="0 0 24 24" xmlns="http://www.w3.org/2000/svg">
        <g id="Iconly/Light/Ticket-Star__Ticket-Star" stroke="none" stroke-width="1" fill="none" fill-rule="evenodd" stroke-linecap="round" stroke-linejoin="round">
            <g id="Ticket-Star__Ticket-Star" transform="translate(2.000000, 3.000000)" stroke="#000000" stroke-width="1.5">
                <path d="M15.8572,17.4171 C17.7302,17.4171 19.2492,15.8991 19.2501995,14.0261 L19.2501995,14.0241 L19.2501995,11.3241 C18.0132,11.3241 17.0112,10.3221 17.0102,9.0851 C17.0102,7.8491 18.0122,6.8461 19.2492,6.8461 L19.2501995,6.8461 L19.2501995,4.1461 C19.2522,2.2721 17.7352,0.7521 15.8622,0.7501 L15.8562,0.7501 L4.1442,0.7501 C2.2702,0.7501 0.7512,2.2681 0.750199507,4.1421 L0.750199507,4.1431 L0.750199507,6.9331 C1.9442,6.8911 2.9452,7.8251 2.9872,9.0191 C2.9882,9.0411 2.9892,9.0631 2.9892,9.0851 C2.9902,10.3201 1.9912,11.3221 0.7562,11.3241 L0.750199507,11.3241 L0.750199507,14.0241 C0.7492,15.8971 2.2682,17.4171 4.1412,17.4171 L4.1422,17.4171 L15.8572,17.4171 Z" id="Stroke-1__Ticket-Star"></path>
                <path d="M10.3713,6.0631 L10.9873,7.3101 C11.0473,7.4321 11.1633,7.5171 11.2983,7.5371 L12.6753,7.7381 C13.0163,7.7881 13.1513,8.2061 12.9053,8.4451 L11.9093,9.4151 C11.8113,9.5101 11.7673,9.6471 11.7893,9.7821 L12.0243,11.1521 C12.0823,11.4911 11.7273,11.7491 11.4233,11.5891 L10.1923,10.9421 C10.0713,10.8781 9.9273,10.8781 9.8063,10.9421 L8.5763,11.5891 C8.2713,11.7491 7.9163,11.4911 7.9743,11.1521 L8.2093,9.7821 C8.2323,9.6471 8.1873,9.5101 8.0893,9.4151 L7.0943,8.4451 C6.8483,8.2061 6.9833,7.7881 7.3233,7.7381 L8.7003,7.5371 C8.8353,7.5171 8.9523,7.4321 9.0123,7.3101 L9.6273,6.0631 C9.7793,5.7551 10.2193,5.7551 10.3713,6.0631 Z" id="Stroke-3__Ticket-Star"></path>
            </g>
        </g>
    </symbol>
    <symbol id="Ticket" width="24px" height="24px" viewBox="0 0 24 24" xmlns="http://www.w3.org/2000/svg">
        <g id="Iconly/Light/Ticket__Ticket" stroke="none" stroke-width="1" fill="none" fill-rule="evenodd" stroke-linecap="round" stroke-linejoin="round">
            <g id="Ticket__Ticket" transform="translate(2.000000, 4.000000)" stroke="#000000" stroke-width="1.5">
                <g id="Group__Ticket" transform="translate(11.349700, 0.250300)">
                    <line x1="0.5" y1="3.64153152e-14" x2="0.5" y2="2.42" id="Stroke-1__Ticket"></line>
                    <line x1="0.5" y1="13.5098" x2="0.5" y2="15.5338" id="Stroke-3__Ticket"></line>
                    <line x1="0.5" y1="10.0743" x2="0.5" y2="5.2533" id="Stroke-6__Ticket"></line>
                </g>
                <path d="M16.7021277,16 C18.5241969,16 20,14.5425518 20,12.7431441 L20,10.1506373 C18.7943262,10.1506373 17.8233208,9.19170851 17.8233208,8.00103 C17.8233208,6.81035149 18.7943262,5.85039269 20,5.85039269 L19.998957,3.25685593 C19.998957,1.45744818 18.522111,0 16.7010847,0 L3.29891531,0 C1.47788903,0 0.00104297038,1.45744818 0.00104297038,3.25685593 L0,5.93485258 C1.20567376,5.93485258 2.17667918,6.81035149 2.17667918,8.00103 C2.17667918,9.19170851 1.20567376,10.1506373 0,10.1506373 L0,12.7431441 C0,14.5425518 1.47580309,16 3.29787234,16 L16.7021277,16 Z" id="Stroke-7__Ticket"></path>
            </g>
        </g>
    </symbol>
</svg>